<svg id="Layer_1" data-name="Layer 1" xmlns="http://www.w3.org/2000/svg" viewBox="0 0 1333 1246"><defs><style>.cls-1{fill:#3e5b65;}.cls-2{fill:#fff;}</style></defs><path class="cls-1" d="M1333.28,1218.05v27.62h-4.36c-4.53-9.23-8.71-17.43-9.31-18-1.4-1.21-12.72-18-16.87-19.42s-15.7-6.76-19.24-7.68-12.29-4.66-15.68-5.25-1.09-2.89-1.09-2.89,8.22-5.47,15.61-3,16.16,4.6,26.92-1.56,10.85,5.91,10.85,5.91-2.07,5.46,10.48,20.92Z" transform="translate(-0.28 0.33)"/><path class="cls-1" d="M1333.28,1075.12v7.8c-4.15-3.9-8.24-8.61-8-10.38C1325.28,1072.54,1328.78,1073.61,1333.28,1075.12Z" transform="translate(-0.28 0.33)"/><path class="cls-1" d="M1285.86,237.58c-1.83-1-16.71-8.68-16.33-9.84s-1.34-1.64-1.08-2.4-.67-4.16,4.51-1.75,20.47,5.78,20.47,5.78-14.52-7.22-14.16-8.3c1.23-1.64,3.38-.41,3.38-.41s10,2.14,11.95,3.63,10.05.09,12.16,2,8.36,4.15,9,3.84c.36-.18,9.6-5.14,17.55-9.73v11.12c-9.7,5-18.12,8.94-19,8.71-2.21-.56-13.44,3.4-17.28,2.12s-9.39-1.07-11,.26-6.87,3.19-6.87,3.19-1.44-3.39,0-4.1-8.52-3.69-9.75-4.1-2.26-2.46-1-3.08,11.18,2.36,11.18,2.36S1283.64,236.47,1285.86,237.58Z" transform="translate(-0.28 0.33)"/><path class="cls-1" d="M1333.28,26v77c-19.77-6.93-41.69-14.56-42.41-14.51-1.31.07-20.77,1.17-24.07-.06s-11.51-5.11-16-5.18,11.09-13.06,16.58-15.68,13.43-1.86,19.48-9.76,10.35-12.11,15.63-14.11,15.68-6.58,15.68-6.58-8.51-3.17-8.51-5.22,3.94-4.67,4.4-4.52.93,2.87,5.65,0,5.84-2.16,8.1-2.27A15.12,15.12,0,0,1,1333.28,26Z" transform="translate(-0.28 0.33)"/><path class="cls-1" d="M1333.28-.33v9c-1.42-3-2.91-6-4.36-9Z" transform="translate(-0.28 0.33)"/><path class="cls-1" d="M1329.24,187.4c1.14-1.18,2.64-2.79,4-4.52v5.43A10.57,10.57,0,0,0,1329.24,187.4Z" transform="translate(-0.28 0.33)"/><path class="cls-2" d="M1327.34,189.27s.4-.66,1-1.7c1.31-2.27,3.59-6.36,5-9.46v4.77c-1.4,1.73-2.9,3.34-4,4.52S1327.34,189.27,1327.34,189.27Z" transform="translate(-0.28 0.33)"/><path class="cls-1" d="M1324.7,148.08c2.63-1.11,6.63-3.28,7.63-6.56a15.72,15.72,0,0,1,1-2.34v23.36c-1.4-3.72-2.85-7.22-3.75-9C1328.75,152,1326.82,150.09,1324.7,148.08Z" transform="translate(-0.28 0.33)"/><path class="cls-1" d="M1322.14,148.94c-.41-.74-.72-1.26-.72-1.26l.29.14c.11.19.34.58.61,1.07Z" transform="translate(-0.28 0.33)"/><path class="cls-2" d="M1314.43,136.46c-.14-1.72-5.9-15.84-5.9-15.84s2.22-4.63,3.5,2,4.51,9.77,4.83,15c.2,3.29,4.29,7,7.84,10.4,2.12,2,4,3.88,4.83,5.43.9,1.81,2.35,5.31,3.75,9v5.83c-1.1-3.39-2.82-7.34-4.38-11.41a18.57,18.57,0,0,0-5.71-8.3,7.83,7.83,0,0,0-1.57-1l.09.14-.29-.14s.31.52.72,1.26l.18-.05,0,.05a20,20,0,0,1,1.77,3.86c.49,1.83-1.21,4.89-2.36,7.36s-7.73,5.34-6.61,4,5.88-5.11,5.87-6.57,1.36-5.3.42-7.56c-.12-.27-.3-.65-.54-1.1C1319.16,145.55,1314.56,138,1314.43,136.46Z" transform="translate(-0.28 0.33)"/><path class="cls-2" d="M1315,188.72s-1.77-3.15-2.92-3.79-2.18-.9-1.85-2.15,1.25-2.49,2.38-2.29,2.88.87,3.34,2a13.9,13.9,0,0,1,.92,4.15c-.07.75.26,1.8-.79,2.39S1315,188.72,1315,188.72Z" transform="translate(-0.28 0.33)"/><path class="cls-1" d="M1312.1,184.93c1.15.64,2.92,3.79,2.92,3.79s0,.95,1.08.36.72-1.64.79-2.39a13.9,13.9,0,0,0-.92-4.15c-.46-1.18-2.21-1.84-3.34-2s-2.05,1-2.38,2.29S1310.94,184.29,1312.1,184.93Zm-102.39-66.11s6.85,6.89,11.69,5.94c0,0,6.62,1.17,10,3s28.55,2.4,28.55,2.4,10.35-1.43,18.73,2.64,25.58,5.94,30.78,11.13c3.83,3.83,9,4.74,11.41,5,.24.45.42.83.54,1.1.94,2.26-.44,6.11-.42,7.56s-4.75,5.17-5.87,6.57,5.46-1.49,6.61-4,2.85-5.53,2.36-7.36a20,20,0,0,0-1.77-3.86l.84-.28a18.57,18.57,0,0,1,5.71,8.3c1.56,4.07,3.28,8,4.38,11.41v9.74c-1.36,3.1-3.64,7.19-5,9.46a2.64,2.64,0,0,0-1.22.88c-1.92,2.43-1.55,11.1-4.73,11.92s-6.05,1.75-6.1,3.44-.25,3.85-3.74,5.08-7.69,2.57-9.74,2.06-5.28,1-6.93-.76,1.49-.88-4.46-1.49-7.69-2-11.33-3.42-22.37-7.78-21.55-10.24-4.1-3.59-8-5.74-4.36-3.33-5-5.59-3.09-11.28-5.65-12.3-.92,1.74-3.85-1.79-3.08-2.56-4.21-6.36-1.9-2-.21-6c0,0,2.21,7.74,4.67,8,0,0-6.26-13-4.83-15.79,0,0,1.54,5.13,3.39,5.23a6,6,0,0,1-1-5.63s4.31,4,5.39,3.32,6.3-5.09,5.63-6.16-3.33-3.85-3-5.44c0,0,4.93,6.26,6.83,5.69a13.09,13.09,0,0,1,10,2.15c3.75,2.61,9.39,4.14,10,3.32s0-1.89,5.13,0,10.62,5.07,13.24,3.89-.62-2.77,3.64-.67,3.33,2.3,5.64,3.07-6.11-4.76-6.62-6.3-12.77-6.3-14.11-6.4-9.74,0-15.18-1.63c-4.24-1.28-13.09-4.41-17.77-5.88a26.12,26.12,0,0,0-2.75-.77c-2.1-.36-11-.25-11.69.21s-13.53,5.24-14.55,7.29-3.49-1.84,3.73-5.59c0,0,1.82-.59.39-1.92s-11.59-3.43-12.49-4.84,7.28.12,9.15.82l.21.06c-.41-.4-9.15-4.88-8.75-6.06s-.57-2.15,2.28-1,6.87,2.2,7,2-8.12-8.17-6.65-9.82C1209.81,117.74,1209.71,118.82,1209.71,118.82Z" transform="translate(-0.28 0.33)"/><path class="cls-1" d="M723.52,403.88c1.54,3.83,8.61,11.43,8.61,11.43s.56-10.9-2.56-14.89.35-9.4.35-9.4c12.58-12.76,21.51-15.46,22.7-13.55s-4.61,14.92-7,17.84.77,25.13,1.24,29.16-1.39,5.92-1.39,5.92c-11.26-1.52-13.56-6.85-13.33-9.45s-10.66-15.62-10.66-15.62C721.71,403.64,722.51,403.47,723.52,403.88Z" transform="translate(-0.28 0.33)"/><path class="cls-1" d="M703.82,469.76s-10.2,19.05-10.71,26.12c-2.36,5.4-10.25,9.87-11.88,8.6s-3.8-22.43-3.13-28.72-.69-8.51-4.1-9.8-15.87-13.07-15.46-16.12c0,0,25.88,7.87,27.47,11.27s1.37,10.34,1.09,11.3-.21,17.1,4.25,15.82,5.5-8.15,6.77-10.24,4.17-8.86,4.17-8.86Z" transform="translate(-0.28 0.33)"/><path class="cls-1" d="M684.07,791.52c-.57.57-1.46,5.92.66,3.8,0,0,2.22.93,2.61,1.78s1.66,0,2.7-.4,1.23-1.38,1.78-2.66-.29-2.61-1.25-4.34-2-.65-2-.65-1.23,1.39-1.3,1.49S684.65,790.94,684.07,791.52Zm-65,68.76c-1.83-.95-16.71-8.68-16.33-9.83s-1.34-1.64-1.08-2.41-.67-4.16,4.51-1.75,20.46,5.78,20.46,5.78-14.51-7.22-14.16-8.3c1.23-1.64,3.39-.41,3.39-.41s10.05,2.15,12,3.63,10,.1,12.15,2,8.37,4.15,9,3.84,28.3-15.2,29-17.2-4.58-22.2-8.12-23.38c-2.52-.83-5.27-2.26-7.34-2.14,3-3.1,8.57-9.29,8-12.46-.77-4.35-5.64-17.28-7.72-21.43-.78-1.55-2.7-3.42-4.82-5.43,2.63-1.11,6.62-3.28,7.63-6.56a17.18,17.18,0,0,1,11-11.08A69.61,69.61,0,0,1,688.69,751c1.47-.15,13.09-3.12,13.1-7.77a7.23,7.23,0,0,0-3.88-6.46s-72.47-25.64-73.78-25.56-20.77,1.17-24.08-.06-11.5-5.11-16-5.18,11.09-13.06,16.58-15.68,13.43-1.86,19.47-9.76,10.35-12.11,15.63-14.11,15.69-6.58,15.69-6.58-8.51-3.17-8.52-5.22,3.95-4.67,4.41-4.52.93,2.87,5.64,0,5.85-2.16,8.1-2.26a16.5,16.5,0,0,1,6.88,1.43c2.25.92,6.71,1.38,6.66,0S654.26,606,652.86,604.75s-12.71-18-16.87-19.42-15.69-6.76-19.23-7.68-12.29-4.66-15.69-5.24-1.09-2.9-1.09-2.9,8.23-5.47,15.62-3,16.15,4.6,26.92-1.56,10.85,5.92,10.85,5.92-2.07,5.46,10.47,20.91,13.32,16.22,21.72,24.91,7.16,14.68,7.16,14.68,24.75-21.25,32.52-18.41,16.47,4.45,17.47,1.45c0,0,16.44-26.06,23.7-46.89s4.69-35.69,4.69-35.69-14.06-22.45-13-25.53,5.74-3.9,5.74-3.9,11.48-2.68,16.31,5.42,6.74,25.48,10.28,33.84-3.89,5.54-9.21,30.78c-3.17,9.54-5.12,9.23-5.22,13.64s1.55,13.84-15.24,44.83c0,0-9.74,13.85-10.24,19.49s4,48.51,6.19,49.23,14.47,22.24,12.12,29.32-4.61,10.77-14.24,26.37-23,17.66-26.23,24.43S711,799.44,711,799.44s-12.56,10-13.63,13.25-3.64,6.31-2.92,8.77,4.42,11.38,3.4,14.45-48.13,27.58-50.34,27-13.43,3.39-17.28,2.11-9.38-1.07-11,.27-6.87,3.18-6.87,3.18-1.44-3.38,0-4.1-8.51-3.69-9.74-4.1-2.26-2.46-1-3.07,11.18,2.35,11.18,2.35S616.9,859.17,619.12,860.28Z" transform="translate(-0.28 0.33)"/><path class="cls-2" d="M684.73,795.32c-2.12,2.12-1.23-3.23-.66-3.8s3.18-.87,3.24-1,1.3-1.49,1.3-1.49,1-1.08,2,.65,1.8,3.06,1.25,4.34-.74,2.24-1.78,2.66-2.3,1.26-2.7.4S684.73,795.32,684.73,795.32Z" transform="translate(-0.28 0.33)"/><path class="cls-2" d="M647.69,759.16c-.15-1.72-5.9-15.84-5.9-15.84s2.21-4.62,3.49,2,4.52,9.77,4.84,15c.2,3.3,4.29,7,7.84,10.4,2.12,2,4,3.88,4.82,5.43,2.08,4.15,7,17.08,7.72,21.43.56,3.17-5,9.36-8,12.46-1.11,1.15-1.89,1.88-1.89,1.88l1-1.71c1.74-3,5.22-9.29,5.93-12.12,1-3.8-2.48-11-5.37-18.49a18.56,18.56,0,0,0-5.7-8.3,7.42,7.42,0,0,0-1.57-1s.32.52.73,1.25a21.31,21.31,0,0,1,1.77,3.86c.49,1.83-1.22,4.89-2.36,7.36s-7.73,5.35-6.61,3.95,5.88-5.11,5.86-6.56,1.36-5.3.42-7.57c-.11-.27-.3-.64-.53-1.1C652.42,768.25,647.82,760.67,647.69,759.16Z" transform="translate(-0.28 0.33)"/><path class="cls-2" d="M643.71,805.48c.33-1.26,1.26-2.49,2.38-2.28s2.88.86,3.34,2a14.26,14.26,0,0,1,.93,4.16c-.08.74.25,1.79-.8,2.38s-1.07-.36-1.07-.36-1.78-3.15-2.93-3.79S643.38,806.74,643.71,805.48Z" transform="translate(-0.28 0.33)"/><path class="cls-1" d="M648.49,811.42s0,1,1.07.36.72-1.64.8-2.38a14.26,14.26,0,0,0-.93-4.16c-.46-1.18-2.21-1.84-3.34-2s-2.05,1-2.38,2.28.7,1.51,1.85,2.15S648.49,811.42,648.49,811.42Zm-81.4-39.65s4.31,4,5.38,3.32,6.31-5.08,5.64-6.16-3.34-3.84-3-5.43c0,0,4.93,6.25,6.83,5.68a13.1,13.1,0,0,1,10,2.15c3.74,2.61,9.39,4.15,10,3.33s0-1.9,5.13,0,10.62,5.07,13.23,3.89-.62-2.77,3.64-.67,3.34,2.31,5.65,3.07-6.11-4.76-6.62-6.3-12.78-6.3-14.11-6.4-9.74,0-15.18-1.63c-4.25-1.28-13.1-4.4-17.77-5.87a27,27,0,0,0-2.75-.78c-2.1-.36-11-.25-11.69.21S548,765.41,547,767.47s-3.49-1.85,3.74-5.6c0,0,1.82-.59.38-1.92s-11.59-3.43-12.49-4.84,7.29.12,9.16.83-9-4.7-8.54-6-.57-2.15,2.28-.95,6.87,2.2,7,2-8.12-8.17-6.64-9.81c1.17-.72,1.07.35,1.07.35s6.85,6.89,11.7,5.94c0,0,6.61,1.18,10,3s28.55,2.41,28.55,2.41,10.34-1.44,18.73,2.64,25.58,5.94,30.78,11.13c3.83,3.82,9,4.74,11.41,5,.23.46.42.83.53,1.1.94,2.27-.43,6.11-.42,7.57s-4.74,5.16-5.86,6.56,5.46-1.49,6.61-3.95,2.85-5.53,2.36-7.36a21.31,21.31,0,0,0-1.77-3.86l.84-.28a18.56,18.56,0,0,1,5.7,8.3c2.89,7.52,6.34,14.69,5.37,18.49-.71,2.83-4.19,9.09-5.93,12.12a2.66,2.66,0,0,0-1.22.88c-1.92,2.44-1.56,11.1-4.73,11.93s-6,1.74-6.1,3.44-.26,3.84-3.74,5.08-7.69,2.56-9.75,2-5.28,1-6.92-.76,1.49-.87-4.46-1.48-7.7-2-11.34-3.43S591,820.2,591.79,817.74s-4.11-3.59-8-5.74-4.36-3.33-5-5.58-3.08-11.28-5.65-12.31-.92,1.75-3.84-1.79-3.08-2.56-4.21-6.35-1.9-2-.21-6.06c0,0,2.21,7.75,4.67,8.05,0,0-6.27-13-4.83-15.79,0,0,1.54,5.13,3.39,5.23A6,6,0,0,1,567.09,771.77Z" transform="translate(-0.28 0.33)"/><path class="cls-1" d="M123.85,1164.62c3.55,8.35-3.89,5.54-9.2,30.77-3.18,9.54-5.12,9.24-5.22,13.65-.09,4,1.25,12.11-11,36.63H37.25c7.64-5.5,17.15-11.32,21.46-9.75,7.77,2.84,16.46,4.45,17.46,1.45,0,0,16.44-26.06,23.7-46.89s4.7-35.69,4.7-35.69-14.07-22.45-13-25.53,5.74-3.9,5.74-3.9,11.49-2.68,16.31,5.42S120.31,1156.26,123.85,1164.62Z" transform="translate(-0.28 0.33)"/><path class="cls-1" d="M57,1026.58c1.55,3.83,8.61,11.43,8.61,11.43s.56-10.9-2.56-14.89.36-9.4.36-9.4C76,1001,84.89,998.26,86.08,1000.17s-4.61,14.92-7,17.84.76,25.14,1.23,29.17-1.39,5.92-1.39,5.92c-11.26-1.52-13.56-6.85-13.33-9.46S54.9,1028,54.9,1028C55.17,1026.34,56,1026.18,57,1026.58Z" transform="translate(-0.28 0.33)"/><path class="cls-1" d="M25.1,1110.94c4.46-1.28,5.49-8.16,6.77-10.25s4.16-8.86,4.16-8.86l1.54.63s-10.2,19-10.72,26.12c-2.36,5.4-10.25,9.87-11.88,8.61s-3.8-22.44-3.13-28.73-.68-8.51-4.1-9.79c-1.43-.54-4.46-2.93-7.46-5.75v-7.8c7.75,2.61,18.47,6.54,19.48,8.69,1.59,3.4,1.36,10.34,1.09,11.31S20.64,1112.21,25.1,1110.94Z" transform="translate(-0.28 0.33)"/><path class="cls-1" d="M24-.33c2.64,4.45,2.59,7.52,2.5,8.4l-.31.26S26.9,5,23.75-.33Z" transform="translate(-0.28 0.33)"/><path class="cls-1" d="M24,1245.67H.28v-27.62c10,12.29,11.27,13.58,19,21.59A33.28,33.28,0,0,1,24,1245.67Z" transform="translate(-0.28 0.33)"/><path class="cls-1" d="M26.22,8.33l.31-.26a1.83,1.83,0,0,1,0,.26S31.43,4.1,37.57-.33h61.2q-1.9,3.83-4.27,8.2S84.77,21.72,84.26,27.36s4,48.51,6.19,49.23,14.48,22.24,12.12,29.32S98,116.68,88.34,132.28s-23,17.65-26.24,24.43-17.32,19.7-17.32,19.7-12.55,10-13.63,13.24-3.64,6.31-2.92,8.77,4.42,11.38,3.4,14.46C31,214.7,14.3,224,.28,231.2V220.41c5.94-3.42,11.17-6.64,11.45-7.49a2.23,2.23,0,0,0,.06-.71c.14-3.41-4.8-21.87-8.18-23-1.09-.36-2.22-.84-3.33-1.25v-5c2.2-2.72,4.16-5.72,4-7.71v-.05a2.66,2.66,0,0,0,0-.57,94.32,94.32,0,0,0-4-12.49V139.25a17.12,17.12,0,0,1,10.08-8.81,68.69,68.69,0,0,1,12.12-2.13c1.46-.15,13.08-3.12,13.09-7.78a2.44,2.44,0,0,0,0-.27.13.13,0,0,0,0-.06,7.25,7.25,0,0,0-3.87-6.46s-15-5.29-31.42-11.06V26q.74.25,1.47.54c2.25.93,6.72,1.38,6.66,0a.45.45,0,0,0,0-.13.64.64,0,0,0,0-.2c0-.59-3.75-8.61-8.13-17.69V-.33H23.75C26.9,5,26.22,8.33,26.22,8.33ZM20.84,174.4c.4.85,1.66,0,2.7-.4s1.23-1.38,1.78-2.66S25,168.73,24.07,167s-2-.65-2-.65-1.23,1.38-1.3,1.49-2.66.4-3.24,1-1.46,5.93.66,3.81C18.23,172.62,20.45,173.54,20.84,174.4Z" transform="translate(-0.28 0.33)"/><path class="cls-2" d="M22.11,166.35s1-1.08,2,.65,1.8,3.06,1.25,4.34-.74,2.24-1.78,2.66-2.3,1.25-2.7.4-2.61-1.78-2.61-1.78c-2.12,2.12-1.23-3.23-.66-3.81s3.18-.86,3.24-1S22.11,166.35,22.11,166.35Z" transform="translate(-0.28 0.33)"/><path class="cls-1" d="M.28,220.08c5.94-3.42,11.17-6.64,11.45-7.49a1.59,1.59,0,0,0,.06-.38,2.23,2.23,0,0,1-.06.71c-.28.85-5.51,4.07-11.45,7.49Z" transform="translate(-0.28 0.33)"/><path class="cls-1" d="M35.57,120.53c0,4.66-11.63,7.63-13.09,7.78a68.69,68.69,0,0,0-12.12,2.13A17.12,17.12,0,0,0,.28,139.25v-.33a17.09,17.09,0,0,1,10.08-8.81A68.69,68.69,0,0,1,22.48,128c1.45-.15,13-3.09,13.08-7.72A2.44,2.44,0,0,1,35.57,120.53Z" transform="translate(-0.28 0.33)"/><path class="cls-1" d="M4.31,175.22c.13,2-1.83,5-4,7.71v-.33C2.36,180,4.23,177.21,4.31,175.22Z" transform="translate(-0.28 0.33)"/><path class="cls-2" d="M1.31,175.45c.45-1.77-.07-4.28-1-7.2v-5.81a93.9,93.9,0,0,1,4,12.5,1.6,1.6,0,0,1,0,.23v.05c-.08,2-1.95,4.81-4,7.38v-4.4A20.4,20.4,0,0,0,1.31,175.45Z" transform="translate(-0.28 0.33)"/><path class="cls-1" d="M1.75,26.24c2.13.87,6.27,1.33,6.63.2a.45.45,0,0,1,0,.13c.06,1.38-4.41.93-6.66,0Q1,26.28.28,26V25.7Z" transform="translate(-0.28 0.33)"/><path class="cls-1" d="M.28,168.25c1,2.92,1.48,5.43,1,7.2a20.4,20.4,0,0,1-1,2.75Z" transform="translate(-0.28 0.33)"/></svg>