<svg id="Layer_1" data-name="Layer 1" xmlns="http://www.w3.org/2000/svg" viewBox="0 0 1333.08 1245.41"><defs><style>.cls-1{opacity:0.25;}.cls-2{fill:none;}.cls-3{fill:#fff;}</style></defs><g class="cls-1"><path class="cls-2" d="M654.88,770.39s.32.51.73,1.25l.84-.28A7.42,7.42,0,0,0,654.88,770.39Z" transform="translate(0 0)"/><path class="cls-2" d="M10.08,130.44a68.69,68.69,0,0,1,12.12-2.13c1.46-.15,13.08-3.12,13.09-7.78a7.25,7.25,0,0,0-3.87-6.46S16.45,108.78,0,103v36.24A17.09,17.09,0,0,1,10.08,130.44Z" transform="translate(0 0)"/><path class="cls-2" d="M8.13,26.57C8.11,26,4.37,18,0,8.88V26q.74.25,1.47.54C3.72,27.49,8.19,28,8.13,26.57Z" transform="translate(0 0)"/><path class="cls-2" d="M1321.42,147.68s.32.52.73,1.26l.84-.28A7.83,7.83,0,0,0,1321.42,147.68Z" transform="translate(0 0)"/><path class="cls-2" d="M26.22,8.66S31.15,4.43,37.29,0H23.75C26.9,5.31,26.22,8.66,26.22,8.66Z" transform="translate(0 0)"/><path class="cls-2" d="M11.45,212.92c.67-2-4.58-22.2-8.12-23.38-1.09-.36-2.22-.84-3.33-1.25v32.12C5.94,217,11.17,213.77,11.45,212.92Z" transform="translate(0 0)"/><path class="cls-2" d="M1319.4,1227.45c-1.39-1.2-12.71-18-16.87-19.42s-15.69-6.76-19.23-7.68-12.29-4.65-15.69-5.24-1.09-2.9-1.09-2.9,8.23-5.46,15.62-3,16.15,4.6,26.92-1.56,10.85,5.92,10.85,5.92-2.08,5.46,10.47,20.91l2.7,3.31V1082.92c-4.15-3.9-8.24-8.61-8-10.38,0,0,3.5,1.07,8,2.58V231.51c-9.71,5-18.13,8.94-19,8.71-2.2-.56-13.43,3.4-17.28,2.12s-9.38-1.07-11,.26-6.87,3.19-6.87,3.19-1.44-3.39,0-4.11-8.51-3.68-9.74-4.09-2.26-2.46-1-3.08,11.18,2.35,11.18,2.35,4.41-.41,6.57.82c0,0-16.93-8.71-16.52-9.94s-1.34-1.64-1.08-2.41-.67-4.15,4.51-1.74,20.46,5.78,20.46,5.78-14.51-7.22-14.16-8.3c1.23-1.64,3.39-.41,3.39-.41s10,2.14,12,3.63,10,.09,12.15,2,8.37,4.15,9,3.84c.35-.18,9.59-5.14,17.55-9.73V188.3a10.73,10.73,0,0,0-4-.9c-1.11,1.14-1.89,1.87-1.89,1.87l1-1.7a2.59,2.59,0,0,0-1.22.88c-1.92,2.43-1.56,11.1-4.74,11.92s-6,1.75-6.1,3.44-.25,3.85-3.73,5.08-7.69,2.57-9.75,2.06-5.28,1-6.92-.76,1.49-.88-4.46-1.49-7.7-2-11.34-3.42-22.36-7.78-21.54-10.24-4.11-3.59-8-5.74-4.36-3.33-5-5.59-3.08-11.28-5.65-12.3-.92,1.74-3.84-1.79-3.08-2.56-4.21-6.36-1.9-2-.21-6c0,0,2.21,7.74,4.67,8,0,0-6.27-13-4.83-15.79,0,0,1.54,5.12,3.39,5.23a6,6,0,0,1-1-5.64s4.31,4,5.38,3.32,6.31-5.08,5.64-6.15-3.34-3.85-3-5.44c0,0,4.93,6.26,6.83,5.69a13,13,0,0,1,10,2.15c3.74,2.61,9.39,4.14,10,3.32s0-1.9,5.13,0,10.62,5.07,13.23,3.89-.62-2.77,3.64-.67,3.34,2.3,5.65,3.07-6.11-4.77-6.62-6.3-12.78-6.3-14.11-6.4-9.74,0-15.18-1.63-18.42-6.3-20.52-6.65-11-.25-11.69.21-13.53,5.24-14.56,7.29-3.49-1.84,3.74-5.59c0,0,1.82-.59.38-1.92s-11.59-3.43-12.49-4.84,7.29.12,9.16.82-9-4.69-8.55-6-.56-2.15,2.29-1,6.87,2.2,7,2-8.12-8.17-6.64-9.82c1.17-.72,1.07.36,1.07.36s6.85,6.89,11.7,5.94c0,0,6.61,1.17,10,3s28.55,2.4,28.55,2.4,10.34-1.43,18.73,2.64,25.58,5.94,30.78,11.13c3.83,3.83,9,4.74,11.41,5-1.74-3.33-6.34-10.91-6.47-12.42-.15-1.72-5.9-15.84-5.9-15.84s2.21-4.63,3.49,2,4.52,9.77,4.84,15c.2,3.29,4.29,7,7.84,10.39,2.63-1.1,6.62-3.27,7.63-6.55a15.21,15.21,0,0,1,.95-2.35V103c-19.77-6.94-41.7-14.56-42.41-14.52-1.31.08-20.77,1.17-24.08-.05s-11.5-5.11-16-5.18,11.09-13.06,16.57-15.68,13.44-1.86,19.48-9.76,10.35-12.11,15.63-14.11S1318,37.15,1318,37.15s-8.51-3.17-8.52-5.22,4-4.67,4.41-4.52.93,2.87,5.64,0,5.85-2.16,8.1-2.27a15.17,15.17,0,0,1,5.45.9V9c-1.42-3-2.91-6-4.36-9H98.49q-1.9,3.83-4.27,8.2S84.49,22.05,84,27.69s4,48.51,6.19,49.23,14.48,22.24,12.12,29.32S97.69,117,88.06,132.61,65.1,150.26,61.82,157s-17.32,19.7-17.32,19.7S32,186.75,30.87,190s-3.64,6.31-2.92,8.77,4.42,11.38,3.4,14.46C30.74,215,14,224.34,0,231.53v843.59c7.75,2.6,18.47,6.54,19.48,8.69,1.59,3.4,1.36,10.34,1.09,11.3s-.21,17.1,4.25,15.83,5.49-8.16,6.77-10.25,4.16-8.86,4.16-8.86l1.54.63s-10.2,19-10.72,26.12c-2.36,5.4-10.25,9.87-11.88,8.61s-3.8-22.44-3.13-28.73-.68-8.51-4.1-9.79C6,1088.13,3,1085.74,0,1082.92v134.86c10,12.3,11.27,13.58,19,21.6a32.94,32.94,0,0,1,4.7,6H37.25c7.64-5.51,17.15-11.33,21.46-9.75,7.77,2.84,16.46,4.44,17.46,1.44,0,0,16.44-26.06,23.71-46.88s4.69-35.7,4.69-35.7-14.07-22.45-13-25.53,5.74-3.9,5.74-3.9,11.49-2.67,16.31,5.42,6.74,25.49,10.29,33.84-3.9,5.54-9.21,30.78c-3.17,9.54-5.12,9.23-5.22,13.64-.09,4,1.25,12.11-11,36.64H1328.72C1324.18,1236.18,1320,1228,1319.4,1227.45ZM80.28,1047.18c.48,4-1.39,5.92-1.39,5.92-11.25-1.52-13.56-6.85-13.33-9.46S54.9,1028,54.9,1028c.27-1.68,1.08-1.84,2.08-1.44,1.55,3.83,8.61,11.43,8.61,11.43s.56-10.9-2.56-14.89.36-9.4.36-9.4C76,1001,84.89,998.26,86.08,1000.17s-4.6,14.92-7,17.84S79.81,1043.15,80.28,1047.18ZM723.52,403.87c1.55,3.84,8.61,11.44,8.61,11.44s.56-10.91-2.56-14.89.36-9.41.36-9.41c12.57-12.75,21.5-15.45,22.69-13.54s-4.61,14.92-7,17.84.76,25.13,1.23,29.16-1.39,5.92-1.39,5.92c-11.26-1.52-13.56-6.85-13.33-9.46s-10.66-15.61-10.66-15.61C721.71,403.64,722.51,403.47,723.52,403.87Zm-65,46s25.89,7.87,27.48,11.27,1.36,10.34,1.09,11.3-.21,17.1,4.24,15.82,5.5-8.15,6.77-10.24,4.17-8.86,4.17-8.86l1.53.63s-10.19,19.05-10.71,26.11c-2.36,5.41-10.25,9.88-11.88,8.61s-3.8-22.44-3.13-28.72-.69-8.52-4.1-9.8S658.13,452.89,658.54,449.84ZM781.19,572.42c-3.18,9.54-5.12,9.24-5.22,13.65s1.55,13.84-15.25,44.83c0,0-9.73,13.85-10.24,19.49s4,48.51,6.19,49.23,14.48,22.24,12.12,29.32-4.6,10.77-14.23,26.37-23,17.66-26.24,24.43S711,799.44,711,799.44s-12.55,10-13.63,13.24-3.64,6.31-2.92,8.78,4.42,11.38,3.4,14.45-48.13,27.58-50.34,27-13.43,3.39-17.28,2.11-9.38-1.07-11,.27-6.87,3.18-6.87,3.18-1.44-3.38,0-4.1-8.52-3.69-9.75-4.1-2.26-2.46-1-3.07,11.18,2.35,11.18,2.35,4.41-.42,6.57.81c0,0-16.93-8.7-16.52-9.93s-1.34-1.64-1.08-2.41-.67-4.16,4.51-1.75,20.47,5.78,20.47,5.78-14.52-7.22-14.16-8.3c1.23-1.64,3.38-.41,3.38-.41s10.05,2.15,12,3.63,10,.1,12.16,2,8.36,4.15,9,3.84,28.3-15.2,29-17.2-4.58-22.2-8.12-23.38c-2.52-.83-5.27-2.26-7.34-2.14-1.11,1.15-1.89,1.87-1.89,1.87l1-1.7a2.64,2.64,0,0,0-1.22.88c-1.92,2.44-1.55,11.1-4.73,11.92s-6,1.75-6.1,3.44-.26,3.85-3.74,5.08-7.69,2.57-9.74,2.06-5.29,1-6.93-.76,1.49-.87-4.46-1.49-7.69-2-11.34-3.42S591,820.2,591.79,817.74s-4.11-3.59-8-5.74-4.36-3.33-5-5.59-3.09-11.27-5.65-12.3-.93,1.75-3.85-1.79-3.08-2.56-4.21-6.36-1.9-2-.21-6.05c0,0,2.21,7.75,4.67,8.05,0,0-6.26-13-4.83-15.79,0,0,1.54,5.13,3.39,5.23a6,6,0,0,1-1-5.64s4.31,4,5.39,3.33,6.3-5.08,5.63-6.16-3.33-3.84-3-5.43c0,0,4.93,6.25,6.83,5.68a13.1,13.1,0,0,1,10,2.15c3.75,2.61,9.39,4.15,10,3.32s0-1.89,5.13,0,10.62,5.07,13.23,3.89-.61-2.77,3.64-.67,3.34,2.3,5.65,3.07-6.11-4.76-6.62-6.3-12.78-6.3-14.11-6.4-9.74,0-15.18-1.63-18.41-6.29-20.52-6.65-11-.25-11.69.21S548,765.41,547,767.47s-3.49-1.85,3.74-5.6c0,0,1.82-.59.39-1.92s-11.6-3.43-12.49-4.84,7.28.12,9.15.83-9-4.7-8.54-6-.57-2.15,2.28-.95,6.87,2.2,7,2-8.12-8.17-6.64-9.81c1.18-.73,1.07.35,1.07.35s6.85,6.89,11.7,5.94c0,0,6.62,1.18,10,3s28.55,2.4,28.55,2.4,10.34-1.43,18.73,2.64,25.58,6,30.78,11.13c3.83,3.83,9,4.75,11.41,5-1.74-3.33-6.34-10.91-6.47-12.42-.14-1.72-5.9-15.84-5.9-15.84s2.22-4.62,3.49,2,4.52,9.77,4.84,15c.2,3.29,4.29,7,7.84,10.4,2.63-1.11,6.63-3.28,7.63-6.56a17.18,17.18,0,0,1,11-11.08A68.69,68.69,0,0,1,688.7,751c1.46-.15,13.08-3.12,13.09-7.78a7.22,7.22,0,0,0-3.87-6.45s-72.48-25.64-73.79-25.56-20.77,1.17-24.08-.06-11.5-5.11-16-5.18,11.09-13.06,16.58-15.68,13.43-1.86,19.48-9.76,10.35-12.11,15.63-14.11,15.68-6.58,15.68-6.58-8.51-3.17-8.51-5.22,3.94-4.67,4.4-4.52.93,2.87,5.64,0,5.85-2.16,8.1-2.26a16.35,16.35,0,0,1,6.88,1.43c2.25.92,6.72,1.38,6.66,0S654.26,606,652.87,604.75s-12.72-18-16.87-19.42-15.7-6.76-19.24-7.68-12.29-4.66-15.69-5.24-1.08-2.9-1.08-2.9,8.22-5.47,15.61-3,16.15,4.6,26.92-1.56,10.85,5.91,10.85,5.91-2.07,5.47,10.48,20.92,13.32,16.22,21.71,24.9,7.16,14.69,7.16,14.69,24.75-21.25,32.52-18.41,16.47,4.45,17.47,1.45c0,0,16.44-26.06,23.7-46.89s4.69-35.69,4.69-35.69-14.06-22.45-13-25.53,5.74-3.9,5.74-3.9,11.49-2.68,16.31,5.42,6.74,25.48,10.28,33.84S786.5,547.19,781.19,572.42Z" transform="translate(0 0)"/><path d="M662.16,779.66a18.57,18.57,0,0,0-5.71-8.3l-.84.28a21.31,21.31,0,0,1,1.77,3.86c.49,1.83-1.21,4.89-2.36,7.36s-7.73,5.34-6.61,3.95,5.88-5.11,5.86-6.56,1.36-5.31.42-7.57c-.11-.27-.3-.64-.53-1.1-2.44-.21-7.58-1.13-11.41-5-5.2-5.18-22.39-7.06-30.78-11.13s-18.73-2.64-18.73-2.64-25.14-.58-28.55-2.4-10-3-10-3c-4.85.95-11.7-5.94-11.7-5.94s.11-1.08-1.07-.35c-1.48,1.64,6.8,9.6,6.64,9.81s-4.18-.79-7-2-1.85-.35-2.28.95,10.41,6.71,8.54,6-10-2.24-9.15-.83,11,3.51,12.49,4.84-.39,1.92-.39,1.92c-7.23,3.75-4.76,7.65-3.74,5.6s13.89-6.83,14.56-7.3,9.59-.57,11.69-.21,15.08,5,20.52,6.65,13.85,1.53,15.18,1.63,13.59,4.86,14.11,6.4,8.93,7.07,6.62,6.3-1.39-1-5.65-3.07-1-.51-3.64.67-8-2-13.23-3.89-4.51-.82-5.13,0-6.25-.71-10-3.32a13.1,13.1,0,0,0-10-2.15c-1.9.57-6.83-5.68-6.83-5.68-.35,1.59,2.31,4.35,3,5.43s-4.56,5.49-5.63,6.16-5.39-3.33-5.39-3.33a6,6,0,0,0,1,5.64c-1.85-.1-3.39-5.23-3.39-5.23-1.43,2.77,4.83,15.79,4.83,15.79-2.46-.3-4.67-8.05-4.67-8.05-1.69,4.06-.92,2.26.21,6.05s1.28,2.82,4.21,6.36,1.28.77,3.85,1.79,5,10,5.65,12.3,1.08,3.44,5,5.59,8.83,3.28,8,5.74,17.9,8.86,21.54,10.24,5.39,2.81,11.34,3.42,2.82-.25,4.46,1.49,4.87.25,6.93.76,6.25-.82,9.74-2.06,3.69-3.38,3.74-5.08,2.92-2.61,6.1-3.44,2.81-9.48,4.73-11.92a2.64,2.64,0,0,1,1.22-.88c1.74-3,5.22-9.29,5.94-12.12C668.49,794.35,665,787.18,662.16,779.66Zm-11.8,29.74c-.08.74.25,1.79-.8,2.38s-1.07-.36-1.07-.36-1.77-3.15-2.93-3.79-2.18-.9-1.85-2.15,1.26-2.49,2.39-2.29,2.87.87,3.33,2A14.26,14.26,0,0,1,650.36,809.4Z" transform="translate(0 0)"/><path d="M780.11,507.81c-4.82-8.1-16.31-5.42-16.31-5.42s-4.72.82-5.74,3.9,13,25.53,13,25.53,2.58,14.87-4.69,35.69-23.7,46.89-23.7,46.89c-1,3-9.69,1.39-17.47-1.45s-32.52,18.41-32.52,18.41,1.23-6-7.16-14.69-9.16-9.45-21.71-24.9-10.48-20.92-10.48-20.92-.09-12.07-10.85-5.91S623,569,615.6,566.5s-15.61,3-15.61,3-2.31,2.31,1.08,2.9,12.15,4.32,15.69,5.24,15.08,6.3,19.24,7.68,15.47,18.22,16.87,19.42,21.71,43.14,21.76,44.52-4.41.93-6.66,0a16.35,16.35,0,0,0-6.88-1.43c-2.25.1-3.38-.62-8.1,2.26s-5.18.16-5.64,0-4.41,2.47-4.4,4.52,8.51,5.22,8.51,5.22-10.4,4.57-15.68,6.58-9.59,6.21-15.63,14.11-14,7.14-19.48,9.76-21,15.61-16.58,15.68,12.66,3.95,16,5.18,22.77.14,24.08.06,73.79,25.56,73.79,25.56a7.22,7.22,0,0,1,3.87,6.45c0,4.66-11.63,7.63-13.09,7.78a68.69,68.69,0,0,0-12.12,2.13,17.18,17.18,0,0,0-11,11.08c-1,3.28-5,5.45-7.63,6.56,2.12,2,4,3.88,4.82,5.43,2.08,4.15,7,17.08,7.72,21.43.56,3.17-5,9.36-8,12.46,2.07-.12,4.82,1.31,7.34,2.14,3.54,1.18,8.79,21.38,8.12,23.38s-28.34,16.89-29,17.2-6.87-1.94-9-3.84-10.26-.5-12.16-2-12-3.63-12-3.63-2.15-1.23-3.38.41c-.36,1.08,14.16,8.3,14.16,8.3s-15.29-3.37-20.47-5.78-4.26,1-4.51,1.75,1.49,1.18,1.08,2.41,16.52,9.93,16.52,9.93c-2.16-1.23-6.57-.81-6.57-.81s-10-3-11.18-2.35-.2,2.66,1,3.07,11.18,3.38,9.75,4.1,0,4.1,0,4.1,5.23-1.85,6.87-3.18,7.18-1.55,11-.27,15.08-2.68,17.28-2.11,49.32-23.94,50.34-27-2.68-12-3.4-14.45,1.85-5.54,2.92-8.78S711,799.44,711,799.44s14-12.93,17.32-19.7,16.61-8.83,26.24-24.43,11.88-19.29,14.23-26.37-10-28.61-12.12-29.32S750,656,750.48,650.39s10.24-19.49,10.24-19.49c16.8-31,15.15-40.42,15.25-44.83s2-4.11,5.22-13.65c5.31-25.23,12.75-22.41,9.2-30.77S784.94,515.91,780.11,507.81ZM691.82,794c-.55,1.28-.74,2.24-1.78,2.66s-2.3,1.26-2.7.4-2.61-1.78-2.61-1.78c-2.11,2.12-1.23-3.23-.66-3.8s3.18-.87,3.25-1,1.29-1.49,1.29-1.49,1-1.08,2,.65S692.37,792.76,691.82,794Z" transform="translate(0 0)"/><path class="cls-3" d="M670.5,797.64c-.77-4.35-5.64-17.28-7.72-21.43-.78-1.55-2.7-3.42-4.82-5.43-3.55-3.36-7.64-7.11-7.84-10.4-.32-5.27-3.56-8.39-4.84-15s-3.49-2-3.49-2,5.76,14.12,5.9,15.84c.13,1.51,4.73,9.09,6.47,12.42.23.46.42.83.53,1.1.94,2.26-.43,6.11-.42,7.57s-4.74,5.16-5.86,6.56,5.46-1.49,6.61-3.95,2.85-5.53,2.36-7.36a21.31,21.31,0,0,0-1.77-3.86c-.41-.74-.73-1.25-.73-1.25a7.42,7.42,0,0,1,1.57,1,18.57,18.57,0,0,1,5.71,8.3c2.88,7.52,6.33,14.69,5.37,18.49-.72,2.83-4.2,9.09-5.94,12.12l-1,1.7s.78-.72,1.89-1.87C665.52,807,671.06,800.81,670.5,797.64Z" transform="translate(0 0)"/><path class="cls-3" d="M646.1,803.19c-1.13-.2-2.05,1-2.39,2.29s.7,1.51,1.85,2.15,2.93,3.79,2.93,3.79,0,1,1.07.36.72-1.64.8-2.38a14.26,14.26,0,0,0-.93-4.16C649,804.06,647.22,803.4,646.1,803.19Z" transform="translate(0 0)"/><path class="cls-3" d="M688.61,789.05s-1.23,1.39-1.29,1.49-2.67.4-3.25,1-1.45,5.92.66,3.8c0,0,2.22.92,2.61,1.78s1.66,0,2.7-.4,1.23-1.38,1.78-2.66-.29-2.61-1.25-4.34S688.61,789.05,688.61,789.05Z" transform="translate(0 0)"/><path d="M674,466c3.41,1.28,4.77,3.51,4.1,9.8s1.5,27.46,3.13,28.72,9.52-3.2,11.88-8.61c.52-7.06,10.71-26.11,10.71-26.11l-1.53-.63s-2.89,6.77-4.17,8.86-2.31,9-6.77,10.24-4.52-14.86-4.24-15.82.5-7.91-1.09-11.3-27.48-11.27-27.48-11.27C658.13,452.89,670.59,464.68,674,466Z" transform="translate(0 0)"/><path d="M745.43,430.39s1.86-1.89,1.39-5.92-3.66-26.24-1.23-29.16,8.22-15.94,7-17.84-10.12.79-22.69,13.54c0,0-3.48,5.42-.36,9.41s2.56,14.89,2.56,14.89-7.06-7.6-8.61-11.44c-1-.4-1.81-.23-2.08,1.45,0,0,10.89,13,10.66,15.61S734.17,428.87,745.43,430.39Z" transform="translate(0 0)"/><path d="M1323,148.66l-.84.28a21.31,21.31,0,0,1,1.77,3.86c.49,1.83-1.22,4.89-2.36,7.35s-7.73,5.35-6.61,4,5.88-5.11,5.86-6.57,1.36-5.3.42-7.56c-.11-.27-.3-.65-.53-1.1-2.44-.22-7.58-1.13-11.41-5-5.2-5.19-22.39-7.06-30.78-11.13s-18.73-2.64-18.73-2.64-25.14-.58-28.55-2.4-10-3-10-3c-4.85.95-11.7-5.94-11.7-5.94s.1-1.08-1.07-.36c-1.48,1.65,6.8,9.61,6.64,9.82s-4.18-.8-7-2-1.85-.36-2.29,1,10.42,6.71,8.55,6-10.06-2.23-9.16-.82,11.06,3.51,12.49,4.84-.38,1.92-.38,1.92c-7.23,3.75-4.76,7.65-3.74,5.59s13.89-6.83,14.56-7.29,9.59-.57,11.69-.21,15.08,5,20.52,6.65,13.85,1.53,15.18,1.63,13.59,4.86,14.11,6.4,8.92,7.07,6.62,6.3-1.39-1-5.65-3.07-1-.52-3.64.67-8.05-2-13.23-3.89-4.51-.82-5.13,0-6.26-.71-10-3.32a13,13,0,0,0-10-2.15c-1.9.57-6.83-5.69-6.83-5.69-.36,1.59,2.31,4.36,3,5.44s-4.56,5.49-5.64,6.15-5.38-3.32-5.38-3.32a6,6,0,0,0,1,5.64c-1.85-.11-3.39-5.23-3.39-5.23-1.44,2.77,4.83,15.79,4.83,15.79-2.46-.31-4.67-8-4.67-8-1.69,4-.92,2.26.21,6s1.28,2.82,4.21,6.36,1.28.77,3.84,1.79,5,10.05,5.65,12.3,1.08,3.44,5,5.59,8.83,3.27,8,5.74,17.9,8.85,21.54,10.24,5.39,2.81,11.34,3.42,2.82-.26,4.46,1.49,4.87.25,6.92.76,6.26-.83,9.75-2.06,3.69-3.39,3.73-5.08,2.93-2.62,6.1-3.44,2.82-9.49,4.74-11.92a2.59,2.59,0,0,1,1.22-.88c1.3-2.27,3.58-6.36,4.95-9.46v-9.75c-1.11-3.38-2.83-7.33-4.39-11.4A18.5,18.5,0,0,0,1323,148.66Zm-6.09,38c-.08.75.25,1.8-.8,2.39s-1.07-.36-1.07-.36-1.78-3.15-2.93-3.79-2.18-.9-1.85-2.15,1.26-2.49,2.38-2.29,2.88.87,3.34,2A14.27,14.27,0,0,1,1316.9,186.69Z" transform="translate(0 0)"/><path d="M1324.5,148.07c2.12,2,4,3.89,4.82,5.44.91,1.81,2.36,5.31,3.76,9V139.17a15.21,15.21,0,0,0-.95,2.35C1331.12,144.8,1327.13,147,1324.5,148.07Z" transform="translate(0 0)"/><path d="M1327.63,25.14c-2.25.11-3.38-.61-8.1,2.27s-5.18.15-5.64,0-4.41,2.46-4.41,4.52,8.52,5.22,8.52,5.22-10.41,4.57-15.69,6.58-9.58,6.21-15.63,14.11-14,7.14-19.48,9.76-21,15.6-16.57,15.68,12.65,4,16,5.18,22.77.13,24.08.05c.71,0,22.64,7.58,42.41,14.52V26A15.17,15.17,0,0,0,1327.63,25.14Z" transform="translate(0 0)"/><path d="M1333.08,188.3v-5.42c-1.4,1.73-2.9,3.34-4,4.52A10.73,10.73,0,0,1,1333.08,188.3Z" transform="translate(0 0)"/><path d="M1306.55,226.28c-2.1-1.9-10.25-.51-12.15-2s-12-3.63-12-3.63-2.16-1.23-3.39.41c-.35,1.08,14.16,8.3,14.16,8.3s-15.28-3.38-20.46-5.78-4.26,1-4.51,1.74,1.48,1.18,1.08,2.41,16.52,9.94,16.52,9.94c-2.16-1.23-6.57-.82-6.57-.82s-10-3-11.18-2.35-.2,2.67,1,3.08,11.18,3.38,9.74,4.09,0,4.11,0,4.11,5.23-1.85,6.87-3.19,7.17-1.54,11-.26,15.08-2.68,17.28-2.12c.9.23,9.32-3.73,19-8.71V220.39c-8,4.59-17.2,9.55-17.55,9.73C1314.92,230.43,1308.66,228.18,1306.55,226.28Z" transform="translate(0 0)"/><path d="M1333.08,0h-4.36c1.45,3,2.94,6,4.36,9Z" transform="translate(0 0)"/><path class="cls-3" d="M1327.14,189.27s.78-.73,1.89-1.87,2.65-2.79,4-4.52v-4.77c-1.37,3.1-3.65,7.19-4.95,9.46Z" transform="translate(0 0)"/><path class="cls-3" d="M1324.5,148.07c-3.55-3.35-7.64-7.1-7.84-10.39-.32-5.27-3.56-8.4-4.84-15s-3.49-2-3.49-2,5.75,14.12,5.9,15.84c.13,1.51,4.73,9.09,6.47,12.42.23.45.42.83.53,1.1.94,2.26-.43,6.11-.42,7.56s-4.74,5.17-5.86,6.57,5.46-1.49,6.61-4,2.85-5.52,2.36-7.35a21.31,21.31,0,0,0-1.77-3.86c-.41-.74-.73-1.26-.73-1.26a7.83,7.83,0,0,1,1.57,1,18.5,18.5,0,0,1,5.7,8.3c1.56,4.07,3.28,8,4.39,11.4v-5.82c-1.4-3.72-2.85-7.22-3.76-9C1328.54,152,1326.62,150.08,1324.5,148.07Z" transform="translate(0 0)"/><path class="cls-3" d="M1312.63,180.49c-1.12-.2-2.05,1-2.38,2.29s.69,1.51,1.85,2.15,2.93,3.79,2.93,3.79,0,.95,1.07.36.72-1.64.8-2.39a14.27,14.27,0,0,0-.93-4.15C1315.51,181.36,1313.76,180.7,1312.63,180.49Z" transform="translate(0 0)"/><path d="M0,168.25v9.95a20,20,0,0,0,1-2.76C1.48,173.68,1,171.17,0,168.25Z" transform="translate(0 0)"/><path d="M31.35,213.21c1-3.08-2.68-12-3.4-14.46s1.85-5.54,2.92-8.77S44.5,176.74,44.5,176.74s14-12.93,17.32-19.7,16.61-8.84,26.24-24.43,11.88-19.29,14.23-26.37-10-28.61-12.12-29.32S83.47,33.33,84,27.69,94.22,8.2,94.22,8.2Q96.59,3.82,98.49,0H37.29C31.15,4.43,26.22,8.66,26.22,8.66S26.9,5.31,23.75,0H0V8.88C4.37,18,8.11,26,8.13,26.57c.06,1.38-4.41.92-6.66,0Q.74,26.28,0,26v77c16.45,5.77,31.42,11.06,31.42,11.06a7.25,7.25,0,0,1,3.87,6.46c0,4.66-11.63,7.63-13.09,7.78a68.69,68.69,0,0,0-12.12,2.13A17.09,17.09,0,0,0,0,139.25v23.19a94.32,94.32,0,0,1,4,12.49c.35,2-1.69,5.15-4,8v5.36c1.11.41,2.24.89,3.33,1.25,3.54,1.18,8.79,21.38,8.12,23.38-.28.85-5.51,4.07-11.45,7.49v11.12C14,224.34,30.74,215,31.35,213.21Zm-6-41.87c-.55,1.27-.74,2.24-1.78,2.66s-2.3,1.25-2.7.4-2.61-1.78-2.61-1.78c-2.11,2.12-1.23-3.23-.66-3.81s3.18-.86,3.25-1,1.29-1.49,1.29-1.49,1-1.08,2,.65S25.87,170.06,25.32,171.34Z" transform="translate(0 0)"/><path class="cls-3" d="M4,174.93a94.32,94.32,0,0,0-4-12.49v5.81c1,2.92,1.48,5.43,1,7.19a20,20,0,0,1-1,2.76v4.73C2.31,180.08,4.35,176.92,4,174.93Z" transform="translate(0 0)"/><path class="cls-3" d="M22.11,166.35s-1.23,1.38-1.29,1.49-2.67.4-3.25,1-1.45,5.93.66,3.81c0,0,2.22.92,2.61,1.78s1.66,0,2.7-.4,1.23-1.39,1.78-2.66S25,168.73,24.07,167,22.11,166.35,22.11,166.35Z" transform="translate(0 0)"/><path d="M1319.91,1193.56s-.09-12.08-10.85-5.92-19.54,4-26.92,1.56-15.62,3-15.62,3-2.3,2.31,1.09,2.9,12.15,4.32,15.69,5.24,15.08,6.3,19.23,7.68,15.48,18.22,16.87,19.42c.61.53,4.78,8.73,9.32,18h4.36v-27.63l-2.7-3.31C1317.83,1199,1319.91,1193.56,1319.91,1193.56Z" transform="translate(0 0)"/><path d="M1333.08,1082.92v-7.8c-4.5-1.51-8-2.58-8-2.58C1324.84,1074.31,1328.93,1079,1333.08,1082.92Z" transform="translate(0 0)"/><path d="M0,1217.78v27.63H23.72a32.94,32.94,0,0,0-4.7-6C11.27,1231.36,10,1230.08,0,1217.78Z" transform="translate(0 0)"/><path d="M109.43,1208.77c.1-4.41,2-4.1,5.22-13.64,5.31-25.24,12.75-22.42,9.21-30.78s-5.46-25.74-10.29-33.84-16.31-5.42-16.31-5.42-4.71.83-5.74,3.9,13,25.53,13,25.53,2.57,14.87-4.69,35.7-23.71,46.88-23.71,46.88c-1,3-9.69,1.4-17.46-1.44-4.31-1.58-13.82,4.24-21.46,9.75h61.2C110.68,1220.88,109.34,1212.77,109.43,1208.77Z" transform="translate(0 0)"/><path d="M11.56,1098.46c-.67,6.29,1.5,27.46,3.13,28.73s9.52-3.21,11.88-8.61c.52-7.07,10.72-26.12,10.72-26.12l-1.54-.63s-2.89,6.77-4.16,8.86-2.31,9-6.77,10.25-4.53-14.86-4.25-15.83.5-7.9-1.09-11.3c-1-2.15-11.73-6.09-19.48-8.69v7.8c3,2.82,6,5.21,7.46,5.75C10.88,1090,12.23,1092.17,11.56,1098.46Z" transform="translate(0 0)"/><path d="M86.08,1000.17c-1.19-1.91-10.12.79-22.69,13.55,0,0-3.48,5.42-.36,9.4S65.59,1038,65.59,1038s-7.06-7.6-8.61-11.43c-1-.4-1.81-.24-2.08,1.44,0,0,10.89,13,10.66,15.62s2.08,7.94,13.33,9.46c0,0,1.87-1.9,1.39-5.92s-3.66-26.24-1.23-29.17S87.28,1002.07,86.08,1000.17Z" transform="translate(0 0)"/></g></svg>